<?xml version="1.0" encoding="UTF-8"?>
<svg width="515px" height="529px" viewBox="0 0 515 529" version="1.1" xmlns="http://www.w3.org/2000/svg" xmlns:xlink="http://www.w3.org/1999/xlink">
    <title>0F953291-241F-4916-A3C8-5C547E84FE65</title>
    <defs>
        <ellipse id="path-1" cx="257.501748" cy="418.908807" rx="90.6061413" ry="19.8588803"></ellipse>
        <filter x="-15.7%" y="-71.8%" width="131.5%" height="243.5%" filterUnits="objectBoundingBox" id="filter-2">
            <feOffset dx="0" dy="0" in="SourceAlpha" result="shadowOffsetOuter1"></feOffset>
            <feGaussianBlur stdDeviation="9.5" in="shadowOffsetOuter1" result="shadowBlurOuter1"></feGaussianBlur>
            <feColorMatrix values="0 0 0 0 0   0 0 0 0 0   0 0 0 0 0  0 0 0 0.2 0" type="matrix" in="shadowBlurOuter1"></feColorMatrix>
        </filter>
        <linearGradient x1="30.7141351%" y1="0%" x2="69.7930918%" y2="100%" id="linearGradient-3">
            <stop stop-color="#FFFFFF" stop-opacity="0" offset="0%"></stop>
            <stop stop-color="#FFFFFF" stop-opacity="0.3" offset="63.2404963%"></stop>
            <stop stop-color="#FFFFFF" stop-opacity="0.5" offset="100%"></stop>
        </linearGradient>
        <rect id="path-4" x="0" y="0" width="179.195365" height="273.059604" rx="12.7996689"></rect>
    </defs>
    <g id="Website-1366.768" stroke="none" stroke-width="1" fill="none" fill-rule="evenodd">
        <g id="ABOUT-US-13" transform="translate(-227.000000, -2243.000000)">
            <g id="Group-16" transform="translate(0.000000, 2243.000000)">
                <g id="Group-29" transform="translate(227.000000, 0.000000)">
                    <g id="Oval" fill="black" fill-opacity="1">
                        <use filter="url(#filter-2)" xlink:href="#path-1"></use>
                    </g>
                    <g id="Group-3-Copy" transform="translate(257.476657, 264.292429) rotate(35.000000) translate(-257.476657, -264.292429) translate(83.976657, 63.792429)">
                        <g id="Group-2" transform="translate(82.958743, 64.214788)">
                            <g id="Rectangle">
                                <use fill="#00FFFF" xlink:href="#path-4"></use>
                                <use fill="url(#linearGradient-3)" xlink:href="#path-4"></use>
                            </g>
                            <g id="cardchip" transform="translate(96.990398, 44.392715) rotate(90.000000) translate(-96.990398, -44.392715) translate(76.490398, 27.892715)">
                                <rect id="Rectangle" fill="#D7D7D7" x="0" y="1.27741207" width="40.9121838" height="30.2491178" rx="6.80942387"></rect>
                                <g id="Group" transform="translate(-0.000000, 0.459868)" fill="#494949">
                                    <path d="M6.64677774,0.817543724 C3.43281971,0.817543724 0.818243676,3.46205442 0.818243676,6.71260377 L0.818243676,24.3541172 C0.818243676,27.6046666 3.43281971,30.2491178 6.64677774,30.2491178 L34.2654061,30.2491178 C37.4793641,30.2491178 40.0939401,27.6046666 40.0939401,24.3541172 L40.0939401,6.71260377 C40.0939401,3.46205442 37.4793641,0.817543724 34.2654061,0.817543724 L6.64677774,0.817543724 Z M34.263851,31.0666615 L6.64833279,31.0666615 C2.98245715,31.0666615 0,28.0526359 0,24.3474922 L0,6.71946653 C0,3.0143229 2.98245715,-7.43551686e-13 6.64833279,-7.43551686e-13 L34.263851,-7.43551686e-13 C37.9297267,-7.43551686e-13 40.9121838,3.0143229 40.9121838,6.71946653 L40.9121838,24.3474922 C40.9121838,28.0526359 37.9297267,31.0666615 34.263851,31.0666615 L34.263851,31.0666615 Z" id="Shape"></path>
                                    <path d="M12.9471022,11.4456121 L0.403782283,11.4456121 C0.180746158,11.4456121 0,11.2579446 0,11.0264559 C0,10.7950272 0.180746158,10.6074198 0.403782283,10.6074198 L12.5549062,10.6074198 C12.7854734,6.3871237 16.4073484,1.67169061 19.0275883,0.058663249 C19.2199208,-0.0593953984 19.4672881,0.00636639398 19.5814131,0.205395 C19.6949588,0.404423605 19.6318135,0.661519753 19.4400603,0.779638512 C16.9576972,2.30766846 13.3514638,7.05904812 13.3514638,11.0264559 C13.3514638,11.2579446 13.1701383,11.4456121 12.9471022,11.4456121" id="Fill-10"></path>
                                    <path d="M19.233245,31.0666615 C19.163148,31.0666615 19.0924716,31.0474263 19.0275883,31.0077537 C16.4073484,29.394761 12.7854734,24.6794292 12.5549062,20.4592237 L0.403782283,20.4592237 C0.180746158,20.4592237 0,20.2716203 0,20.0401366 C0,19.8087129 0.180746158,19.6210494 0.403782283,19.6210494 L12.9471022,19.6210494 C13.1701383,19.6210494 13.3514638,19.8087129 13.3514638,20.0401366 C13.3514638,24.0074591 16.9576972,28.7587968 19.4400603,30.2867939 C19.6318135,30.40485 19.6949588,30.662121 19.5814131,30.8610852 C19.5061022,30.9933273 19.3717012,31.0666615 19.233245,31.0666615" id="Fill-11"></path>
                                    <path d="M13.200401,20.4385931 C13.1585376,20.4385931 13.1160301,20.433332 13.0741667,20.4222893 C12.8358671,20.3597336 12.699328,20.1357589 12.7688857,19.922133 C13.7401173,16.9444944 13.7394732,14.317445 12.7669535,11.1379747 C12.7012601,10.9232503 12.8416636,10.7014725 13.0812513,10.6425014 C13.3208389,10.5837037 13.5675111,10.7098557 13.6332045,10.9245223 C14.639215,14.2141299 14.638571,17.0589678 13.6312724,20.1487094 C13.5733076,20.3245244 13.3942609,20.4385931 13.200401,20.4385931" id="Fill-12"></path>
                                    <path d="M26.6122366,7.35789352 C26.4689435,7.35789352 26.3318075,7.26867762 26.2629597,7.11408745 C24.9319012,4.11188044 22.8429567,1.74807122 21.4654399,0.822432465 C21.2801664,0.697897973 21.2191549,0.42663598 21.3288637,0.216690103 C21.4385724,0.00661740922 21.6781406,-0.0626247826 21.8639738,0.061909709 C23.6635335,1.27142877 25.7597547,4.00820738 26.960394,6.71733984 C27.0572288,6.93552883 26.9794251,7.20121087 26.786875,7.31084434 C26.7309012,7.34273886 26.6710091,7.35789352 26.6122366,7.35789352" id="Fill-13"></path>
                                    <path d="M21.6789388,31.0666615 C21.5404826,31.0666615 21.4060816,30.9933273 21.3307707,30.8610852 C21.217225,30.662121 21.2803703,30.40485 21.4721235,30.2867939 C23.9550659,28.7588569 27.5612993,24.0075192 27.5612993,20.0401366 C27.5612993,19.8087129 27.7420455,19.6210494 27.9650816,19.6210494 L40.5084015,19.6210494 C40.7314377,19.6210494 40.9121838,19.8087129 40.9121838,20.0401366 C40.9121838,20.2716203 40.7314377,20.4592237 40.5084015,20.4592237 L28.3572776,20.4592237 C28.1267104,24.6795494 24.5048355,29.3948211 21.8845955,31.0077537 C21.8197122,31.0474263 21.7484565,31.0666615 21.6789388,31.0666615" id="Fill-14"></path>
                                    <path d="M28.0615041,20.4385931 C27.8884368,20.4385931 27.7285939,20.3245233 27.6774212,20.1487066 C26.7775861,17.0589351 26.7770111,14.2140697 27.6751213,10.9244302 C27.7234191,10.7493652 27.8815371,10.6280684 28.0620791,10.6280684 L40.5114266,10.6280684 C40.7327918,10.6280684 40.9121838,10.8085103 40.9121838,11.0310997 C40.9121838,11.2537469 40.7327918,11.4342466 40.5114266,11.4342466 L28.3696904,11.4342466 C27.5808254,14.4818129 27.6066993,17.0375434 28.446737,19.922128 C28.5088343,20.135756 28.3869397,20.3597329 28.1747741,20.4222892 C28.1368258,20.4333319 28.0988774,20.4385931 28.0615041,20.4385931" id="Fill-15"></path>
                                    <path d="M21.2743356,3.27020778 C21.2743356,3.72167684 20.9083312,4.08771862 20.4560919,4.08771862 C20.0038526,4.08771862 19.6378482,3.72167684 19.6378482,3.27020778 C19.6378482,2.81867295 20.0038526,2.45263117 20.4560919,2.45263117 C20.9083312,2.45263117 21.2743356,2.81867295 21.2743356,3.27020778" id="Fill-16"></path>
                                </g>
                            </g>
                            <path d="M134.823179,248.313577 C134.713048,250.635506 136.691325,251.893882 138.236425,252.580134 C139.713577,253.413107 140.227462,253.906234 139.943047,254.286756 C140.210125,255.645879 138.999377,256.109655 138.236425,255.993379 C135.89063,256.159609 134.74301,255.576877 133.969868,255.140067 L133.116557,258.553313 C134.034652,259.008352 135.731018,259.387575 137.383113,259.406624 C141.621565,259.406624 144.323275,257.302139 144.209603,254.286756 C144.353803,249.903105 138.788509,249.674716 139.089736,247.460266 C138.839389,247.263509 139.358173,246.665615 140.796358,246.606955 C141.057743,246.436837 142.611834,246.378136 144.209603,247.460266 L145.062915,244.047021 C144.115987,243.534447 142.89921,243.19371 141.64967,243.19371 C137.496731,243.19371 134.760724,245.325213 134.823179,248.313577 L134.823179,248.313577 Z M151.889405,243.19371 C151.222944,243.19371 150.56835,243.63713 150.182782,244.047021 L144.209603,258.553313 L148.47616,258.553313 L149.329471,255.993379 L154.449339,255.993379 L155.30265,258.553313 L158.715895,258.553313 L155.30265,243.19371 L151.889405,243.19371 Z M152.742716,248.313577 L153.596027,254.286756 L150.182782,254.286756 L152.742716,248.313577 Z M129.703312,243.19371 L126.290067,258.553313 L130.556623,258.553313 L133.969868,243.19371 L129.703312,243.19371 Z M123.730133,243.19371 L119.463577,253.433445 L117.756954,244.900332 C117.297334,243.766977 116.482113,243.19371 115.19702,243.19371 L108.37053,243.19371 L108.37053,244.047021 C109.829242,243.940994 111.487306,244.427634 112.637087,244.900332 C113.10634,245.263831 113.281473,245.54085 113.490398,246.606955 L116.903643,258.553313 L121.170199,258.553313 L127.996689,243.19371 L123.730133,243.19371 L123.730133,243.19371 Z" id="Logo" fill="#FFFFFF"></path>
                        </g>
                        <g id="Group-17" transform="translate(0.597783, 0.445629)">
                            <polygon id="Fill-17" fill="#FFFFFF" transform="translate(172.967101, 200.298960) rotate(-35.000000) translate(-172.967101, -200.298960) " points="98.4963 215.19312 247.437902 215.19312 247.437902 185.4048 98.4963 185.4048"></polygon>
                        </g>
                    </g>
                </g>
            </g>
        </g>
    </g>
</svg>